<svg width="12" height="12" viewBox="0 0 12 12" fill="none" xmlns="http://www.w3.org/2000/svg">
<path d="M6.68358 3.95866H10.2027C10.2287 3.95866 10.2545 3.95348 10.2786 3.94341C10.3026 3.93333 10.3245 3.91857 10.3429 3.89996C10.3613 3.88135 10.3759 3.85925 10.3858 3.83493C10.3958 3.81062 10.4009 3.78455 10.4009 3.75823V0.200427C10.4009 0.160787 10.3893 0.122036 10.3675 0.0890754C10.3457 0.056115 10.3148 0.0304255 10.2786 0.0152558C10.2423 8.61384e-05 10.2025 -0.00388241 10.164 0.00385206C10.1256 0.0115865 10.0902 0.0306766 10.0625 0.0587081L8.66877 1.46779C7.61025 0.789942 6.3588 0.487267 5.11145 0.607415C3.86411 0.727563 2.69171 1.26371 1.77885 2.13145C0.865981 2.99918 0.264497 4.14922 0.0690924 5.4005C-0.126312 6.65177 0.0954622 7.93321 0.699498 9.04307C1.30353 10.1529 2.25552 11.0282 3.40559 11.531C4.55565 12.0338 5.83846 12.1356 7.05205 11.8205C8.26564 11.5053 9.34109 10.791 10.1091 9.79006C10.877 8.78912 11.2939 7.55838 11.2941 6.2916C11.2941 6.15015 11.2385 6.01449 11.1396 5.91447C11.0407 5.81445 10.9065 5.75825 10.7666 5.75825C10.6266 5.75825 10.4925 5.81445 10.3935 5.91447C10.2946 6.01449 10.239 6.15015 10.239 6.2916C10.2382 7.31013 9.90573 8.30006 9.29299 9.10854C8.68026 9.91703 7.82132 10.4991 6.84878 10.7649C5.87625 11.0307 4.84421 10.9655 3.91201 10.5792C2.97981 10.193 2.19929 9.50726 1.69097 8.62789C1.18264 7.74852 0.974779 6.72444 1.09947 5.71374C1.22416 4.70305 1.67448 3.76196 2.38088 3.03577C3.08729 2.30958 4.0105 1.83869 5.00798 1.69579C6.00547 1.55289 7.02174 1.74593 7.89989 2.24511L6.54341 3.61652C6.51568 3.64455 6.4968 3.68026 6.48915 3.71914C6.4815 3.75802 6.48543 3.79831 6.50043 3.83494C6.51544 3.87156 6.54085 3.90286 6.57345 3.92488C6.60605 3.94691 6.64437 3.95866 6.68358 3.95866Z" fill="#357470"/>
</svg>
